<?xml version="1.0" standalone="no"?>
<!DOCTYPE svg PUBLIC "-//W3C//DTD SVG 20010904//EN"
 "http://www.w3.org/TR/2001/REC-SVG-20010904/DTD/svg10.dtd">
<svg version="1.0" xmlns="http://www.w3.org/2000/svg"
 width="180.000000pt" height="180.000000pt" viewBox="0 0 180.000000 180.000000"
 preserveAspectRatio="xMidYMid meet">
<metadata>
Created by potrace 1.11, written by Peter Selinger 2001-2013
</metadata>
<g transform="translate(0.000000,180.000000) scale(0.100000,-0.100000)"
fill="#000000" stroke="none">
<path d="M547 1507 l-347 -202 2 -408 3 -408 347 -200 347 -199 350 202 351
203 -2 408 -3 408 -340 196 c-187 107 -344 197 -350 199 -5 1 -166 -88 -358
-199z m534 -183 c30 -9 73 -27 97 -40 l42 -25 0 -65 0 -66 -31 27 c-92 76
-238 105 -359 69 -75 -22 -149 -97 -175 -179 -27 -82 -28 -258 -2 -332 48
-137 135 -196 292 -194 84 0 148 18 207 58 24 16 49 32 56 37 9 5 12 -8 12
-57 l0 -64 -68 -32 c-181 -83 -391 -58 -520 63 -90 84 -132 196 -132 348 0
236 94 384 285 450 66 23 221 24 296 2z"/>
</g>
</svg>
